<svg xmlns="http://www.w3.org/2000/svg" width="1440" height="900" viewBox="0 0 1440 900"><rect width="1440" height="900" fill="#f8fafc"/><rect x="0" y="0" width="1440" height="84" fill="#0f172a"/><text x="55" y="53" font-family="Arial" font-size="28" font-weight="700" fill="#ffffff">AWS IAM Audit Dashboard</text><text x="55" y="120" font-family="Arial" font-size="15" fill="#64748b">Design preview for exported IAM security review data</text><g font-family="Arial"><rect x="55" y="155" width="300" height="130" rx="18" fill="#ffffff"/><text x="82" y="198" font-size="14" fill="#64748b">Users reviewed</text><text x="82" y="248" font-size="36" font-weight="700" fill="#0f172a">126</text><rect x="380" y="155" width="300" height="130" rx="18" fill="#ffffff"/><text x="407" y="198" font-size="14" fill="#64748b">MFA missing</text><text x="407" y="248" font-size="36" font-weight="700" fill="#dc2626">14</text><rect x="705" y="155" width="300" height="130" rx="18" fill="#ffffff"/><text x="732" y="198" font-size="14" fill="#64748b">Old access keys</text><text x="732" y="248" font-size="36" font-weight="700" fill="#f59e0b">9</text><rect x="1030" y="155" width="300" height="130" rx="18" fill="#ffffff"/><text x="1057" y="198" font-size="14" fill="#64748b">Admin privileges</text><text x="1057" y="248" font-size="36" font-weight="700" fill="#7c3aed">5</text><rect x="55" y="320" width="580" height="430" rx="18" fill="#ffffff"/><text x="85" y="365" font-size="19" font-weight="700" fill="#0f172a">Risk distribution</text><circle cx="335" cy="525" r="120" fill="none" stroke="#e2e8f0" stroke-width="52"/><path d="M335 405 A120 120 0 0 1 444 574" fill="none" stroke="#dc2626" stroke-width="52"/><path d="M444 574 A120 120 0 0 1 267 624" fill="none" stroke="#f59e0b" stroke-width="52"/><path d="M267 624 A120 120 0 0 1 225 475" fill="none" stroke="#2563eb" stroke-width="52"/><text x="307" y="535" font-size="28" font-weight="700" fill="#0f172a">28</text><text x="120" y="705" font-size="14" fill="#dc2626">● High</text><text x="245" y="705" font-size="14" fill="#f59e0b">● Medium</text><text x="390" y="705" font-size="14" fill="#2563eb">● Low</text><rect x="665" y="320" width="665" height="430" rx="18" fill="#ffffff"/><text x="695" y="365" font-size="19" font-weight="700" fill="#0f172a">Findings requiring attention</text><rect x="695" y="395" width="605" height="50" fill="#f1f5f9"/><text x="715" y="426" font-size="14" fill="#334155">User</text><text x="930" y="426" font-size="14" fill="#334155">Finding</text><text x="1200" y="426" font-size="14" fill="#334155">Severity</text><text x="715" y="485" font-size="14" fill="#0f172a">deploy-admin</text><text x="930" y="485" font-size="14" fill="#0f172a">AdministratorAccess attached</text><text x="1200" y="485" font-size="14" fill="#dc2626">High</text><line x1="695" y1="505" x2="1300" y2="505" stroke="#e2e8f0"/><text x="715" y="550" font-size="14" fill="#0f172a">reporting-user</text><text x="930" y="550" font-size="14" fill="#0f172a">MFA not enabled</text><text x="1200" y="550" font-size="14" fill="#f59e0b">Medium</text><line x1="695" y1="570" x2="1300" y2="570" stroke="#e2e8f0"/><text x="715" y="615" font-size="14" fill="#0f172a">legacy-service</text><text x="930" y="615" font-size="14" fill="#0f172a">Access key older than 90 days</text><text x="1200" y="615" font-size="14" fill="#f59e0b">Medium</text><line x1="695" y1="635" x2="1300" y2="635" stroke="#e2e8f0"/><text x="715" y="680" font-size="14" fill="#0f172a">inactive-user</text><text x="930" y="680" font-size="14" fill="#0f172a">No sign-in for 120 days</text><text x="1200" y="680" font-size="14" fill="#2563eb">Low</text></g><text x="1140" y="860" font-family="Arial" font-size="13" fill="#94a3b8">Design preview — not a live screenshot</text></svg>