<svg xmlns="http://www.w3.org/2000/svg" width="1440" height="900" viewBox="0 0 1440 900">
<rect width="1440" height="900" fill="#f4f7fb"/>
<rect x="0" y="0" width="250" height="900" fill="#111827"/>
<text x="36" y="58" fill="#ffffff" font-family="Arial" font-size="25" font-weight="700">Operations Hub</text>
<text x="36" y="106" fill="#9ca3af" font-family="Arial" font-size="15">Overview</text>
<text x="36" y="150" fill="#d1d5db" font-family="Arial" font-size="15">Jobs</text>
<text x="36" y="194" fill="#d1d5db" font-family="Arial" font-size="15">Reports</text>
<text x="36" y="238" fill="#d1d5db" font-family="Arial" font-size="15">Automations</text>
<text x="36" y="282" fill="#d1d5db" font-family="Arial" font-size="15">Settings</text>
<text x="290" y="62" fill="#111827" font-family="Arial" font-size="30" font-weight="700">Business Operations Dashboard</text>
<text x="290" y="94" fill="#6b7280" font-family="Arial" font-size="15">Design preview based on the Streamlit operations project</text>
<g font-family="Arial">
<rect x="290" y="130" rx="16" width="250" height="130" fill="#ffffff"/><text x="315" y="170" fill="#6b7280" font-size="15">Total revenue</text><text x="315" y="220" fill="#111827" font-size="34" font-weight="700">₦8.42M</text>
<rect x="565" y="130" rx="16" width="250" height="130" fill="#ffffff"/><text x="590" y="170" fill="#6b7280" font-size="15">Completed jobs</text><text x="590" y="220" fill="#111827" font-size="34" font-weight="700">1,284</text>
<rect x="840" y="130" rx="16" width="250" height="130" fill="#ffffff"/><text x="865" y="170" fill="#6b7280" font-size="15">Active clients</text><text x="865" y="220" fill="#111827" font-size="34" font-weight="700">318</text>
<rect x="1115" y="130" rx="16" width="250" height="130" fill="#ffffff"/><text x="1140" y="170" fill="#6b7280" font-size="15">Automation success</text><text x="1140" y="220" fill="#111827" font-size="34" font-weight="700">96.4%</text>
<rect x="290" y="290" rx="16" width="700" height="280" fill="#ffffff"/>
<text x="320" y="330" fill="#111827" font-size="18" font-weight="700">Monthly activity</text>
<polyline points="330,500 410,455 490,470 570,405 650,430 730,365 810,390 890,325 950,340" fill="none" stroke="#2563eb" stroke-width="5"/>
<line x1="330" y1="515" x2="950" y2="515" stroke="#d1d5db"/><line x1="330" y1="360" x2="330" y2="515" stroke="#d1d5db"/>
<rect x="1015" y="290" rx="16" width="350" height="280" fill="#ffffff"/>
<text x="1045" y="330" fill="#111827" font-size="18" font-weight="700">Job status</text>
<circle cx="1188" cy="430" r="78" fill="none" stroke="#e5e7eb" stroke-width="30"/><path d="M1188 352 A78 78 0 0 1 1255 470" fill="none" stroke="#10b981" stroke-width="30"/><path d="M1255 470 A78 78 0 0 1 1140 493" fill="none" stroke="#f59e0b" stroke-width="30"/>
<text x="1161" y="438" fill="#111827" font-size="24" font-weight="700">76%</text>
<rect x="290" y="600" rx="16" width="1075" height="230" fill="#ffffff"/>
<text x="320" y="640" fill="#111827" font-size="18" font-weight="700">Recent operational jobs</text>
<text x="320" y="685" fill="#6b7280" font-size="14">Buyer-seller matching</text><text x="800" y="685" fill="#10b981" font-size="14">Completed</text><text x="1120" y="685" fill="#6b7280" font-size="14">2 mins ago</text>
<line x1="320" y1="705" x2="1335" y2="705" stroke="#e5e7eb"/>
<text x="320" y="745" fill="#6b7280" font-size="14">Payroll validation batch</text><text x="800" y="745" fill="#f59e0b" font-size="14">In progress</text><text x="1120" y="745" fill="#6b7280" font-size="14">9 mins ago</text>
<line x1="320" y1="765" x2="1335" y2="765" stroke="#e5e7eb"/>
<text x="320" y="805" fill="#6b7280" font-size="14">IAM access review</text><text x="800" y="805" fill="#2563eb" font-size="14">Pending</text><text x="1120" y="805" fill="#6b7280" font-size="14">18 mins ago</text>
</g>
<text x="1190" y="875" fill="#9ca3af" font-family="Arial" font-size="13">Design preview — not a live screenshot</text>
</svg>